# xmcd
#
# Track frame offsets:
#	150
#	19222
#	39271
#	52379
#	65494
#	76822
#	100095
#	111121
#	133398
#	149886
#	163765
#	179950
#	196285
#	209685
#
# Disc length: 2983 seconds
#
# Revision: 1
# Processed by: cddbd v1.5.2PL0 Copyright (c) Steve Scherf et al.
# Submitted via: audiograbber 1.83.01
#
DISCID=e00ba50e
DTITLE=Various - Jenny Brian
DYEAR=1900
DGENRE=
TTITLE0=All I See Is You
TTITLE1=The Man I Love
TTITLE2=Always
TTITLE3=I Get a Kick Out of You
TTITLE4=Come Dance With Me
TTITLE5=A Nightingale Sang In Berkeley Square
TTITLE6=I Could Write a Book
TTITLE7=I'm Your Man
TTITLE8=Lost
TTITLE9=The Best Is Yet to Come
TTITLE10=Everything
TTITLE11=Save the Last Dance for Me
TTITLE12=How Sweet It Is
TTITLE13=A Dream Is a Wish Your Heart Makes
EXTD=
EXTT0=
EXTT1=
EXTT2=
EXTT3=
EXTT4=
EXTT5=
EXTT6=
EXTT7=
EXTT8=
EXTT9=
EXTT10=
EXTT11=
EXTT12=
EXTT13=
PLAYORDER=
